<svg xmlns="http://www.w3.org/2000/svg" xmlns:xlink="http://www.w3.org/1999/xlink" version="1.1" id="Capa_1" x="0px" y="0px" width="94px" height="44px" viewBox="0 0 94 44" enable-background="new 0 0 94 44" xml:space="preserve"><path fill="#FFFFFF" d="M48 24.079V0h-2v24.079c-3.391 0.486-6 3.396-6 6.921c0 3.9 3.1 7 7 7s7-3.134 7-7 C54 27.5 51.4 24.6 48 24.079z M47 35c-2.209 0-4-1.791-4-4s1.791-4 4-4s4 1.8 4 4S49.209 35 47 35z"/><path fill="#FFFFFF" d="M29.111 20c-2.7 0-4.891 2.211-4.891 4.938c0 1 0.3 1.9 0.8 2.695l-0.024-0.015 c0 0 0.9 1.04-0.75 3.907c-1.638 2.867-2.974 2.606-2.974 2.606l0.033 0.021c-0.092-0.004-0.178-0.026-0.27-0.026 c-1.9 0-3.53 1.106-4.339 2.707v-0.019c0 0-0.427 1.301-3.726 1.301c-3.295 0-3.724-1.301-3.724-1.301v0.057 c-0.801-1.621-2.442-2.745-4.358-2.745c-2.7 0-4.889 2.21-4.889 4.937C0 41.8 2.2 44 4.9 44c1.916 0 3.557-1.124 4.358-2.745 v0.056c0 0 0.446-1.299 3.724-1.299c3.279 0 3.7 1.3 3.7 1.299v-0.019C17.507 42.9 19.1 44 21 44 c2.699 0 4.889-2.21 4.889-4.938c0-1.051-0.33-2.021-0.884-2.82c-0.178-0.362-0.479-1.475 0.832-3.77 c1.647-2.884 2.978-2.606 2.978-2.606l-0.037-0.021c0.1 0 0.2 0 0.3 0.028c2.699 0 4.889-2.21 4.889-4.938 C34 22.2 31.8 20 29.1 20z M4.89 41.501c-1.333 0-2.413-1.091-2.413-2.438c0-1.346 1.08-2.438 2.413-2.438 c1.333 0 2.4 1.1 2.4 2.438C7.303 40.4 6.2 41.5 4.9 41.501z M21.037 41.501c-1.333 0-2.414-1.091-2.414-2.438 c0-1.346 1.081-2.438 2.414-2.438c1.333 0 2.4 1.1 2.4 2.438C23.451 40.4 22.4 41.5 21 41.501z M29.111 27.4 c-1.333 0-2.414-1.091-2.414-2.438c0-1.346 1.081-2.438 2.414-2.438c1.333 0 2.4 1.1 2.4 2.4 C31.525 26.3 30.4 27.4 29.1 27.376z"/><path fill="#FFFFFF" d="M59.999 24.936c0 2.7 2.2 4.9 4.9 4.938c0.103 0 0.196-0.022 0.297-0.028l-0.037 0 c0 0 1.33-0.277 3 2.606c1.312 2.3 1 3.4 0.8 3.77c-0.554 0.799-0.884 1.77-0.884 2.8 c0 2.7 2.2 4.9 4.9 4.938c1.9 0 3.53-1.107 4.338-2.708v0.019c0 0 0.447-1.299 3.727-1.299c3.277 0 3.7 1.3 3.7 1.3 v-0.056C85.552 42.9 87.2 44 89.1 44C91.811 44 94 41.8 94 39.063c0-2.727-2.189-4.937-4.889-4.937 c-1.916 0-3.557 1.124-4.358 2.745v-0.057c0 0-0.429 1.301-3.724 1.301c-3.299 0-3.727-1.301-3.727-1.301v0.019 c-0.809-1.601-2.439-2.707-4.339-2.707c-0.092 0-0.178 0.022-0.271 0.026l0.033-0.021c0 0-1.336 0.261-2.974-2.606 c-1.642-2.867-0.75-3.907-0.75-3.907l-0.024 0.015c0.502-0.775 0.801-1.699 0.801-2.695c0-2.727-2.19-4.938-4.891-4.938 C62.189 20 60 22.2 60 24.936z M86.697 39.063c0-1.346 1.08-2.438 2.412-2.438c1.334 0 2.4 1.1 2.4 2.4 c0 1.348-1.08 2.438-2.414 2.438C87.777 41.5 86.7 40.4 86.7 39.063z M70.549 39.063c0-1.346 1.081-2.438 2.414-2.438 c1.334 0 2.4 1.1 2.4 2.438c0 1.348-1.08 2.438-2.414 2.438C71.63 41.5 70.5 40.4 70.5 39.063z M62.475 24.9 c0-1.346 1.081-2.438 2.414-2.438c1.334 0 2.4 1.1 2.4 2.438c0 1.348-1.08 2.438-2.414 2.4 C63.556 27.4 62.5 26.3 62.5 24.938z"/></svg>