<?xml version="1.0" encoding="utf-8"?>
<!-- Generator: Adobe Illustrator 16.0.0, SVG Export Plug-In . SVG Version: 6.00 Build 0)  -->
<!DOCTYPE svg PUBLIC "-//W3C//DTD SVG 1.1//EN" "http://www.w3.org/Graphics/SVG/1.1/DTD/svg11.dtd">
<svg version="1.1" id="Capa_1" xmlns="http://www.w3.org/2000/svg" xmlns:xlink="http://www.w3.org/1999/xlink" x="0px" y="0px"
	 width="125px" height="125px" viewBox="0 0 125 125" enable-background="new 0 0 125 125" xml:space="preserve">
<g>
	<g>
		<path fill="#2D2D2D" d="M56.806,54.268c-0.391-0.391-1.023-0.391-1.414,0l-5.5,5.501c-0.391,0.39-0.391,1.022,0,1.414l5.5,5.499
			c0.195,0.195,0.451,0.293,0.707,0.293s0.512-0.098,0.707-0.293c0.391-0.391,0.391-1.023,0-1.414l-4.793-4.793l4.793-4.792
			C57.197,55.292,57.197,54.659,56.806,54.268z M88.99,74.947V46.822c0,0-0.186-3.827-3.686-3.827l-44.514-0.048
			c0,0-3.801,0.042-3.801,4.041v28.001l-5.945-0.005l-0.055,4.004c0,0-0.104,4.002,3.666,4.002h56.5
			c3.605,0,3.729-4.002,3.729-4.002v-4.041H88.99z M40.99,46.988h44v26h-44V46.988z M69.513,79.988H56.352
			c-1.12,0-1.357-0.334-1.357-0.979s0.237-1.041,1.357-1.041h13.222c1.088,0,1.42,0.396,1.42,1.041S70.6,79.988,69.513,79.988z
			 M89.99,79.988h-4c-0.553,0-1-0.447-1-1s0.447-1,1-1h4c0.553,0,1,0.447,1,1S90.543,79.988,89.99,79.988z M70.557,54.268
			c-0.391-0.391-1.023-0.391-1.414,0c-0.391,0.392-0.391,1.024,0,1.415l4.793,4.792l-4.793,4.793c-0.391,0.391-0.391,1.023,0,1.414
			c0.195,0.195,0.451,0.293,0.707,0.293s0.512-0.098,0.707-0.293l5.5-5.499c0.391-0.392,0.391-1.024,0-1.414L70.557,54.268z
			 M66.172,54.081c-0.493-0.248-1.094-0.047-1.342,0.446l-5.5,11c-0.247,0.494-0.047,1.096,0.447,1.342
			c0.144,0.072,0.296,0.105,0.446,0.105c0.367,0,0.72-0.201,0.896-0.553l5.5-11C66.866,54.928,66.666,54.327,66.172,54.081z"/>
	</g>
</g>
</svg>
