<svg xmlns="http://www.w3.org/2000/svg" xmlns:xlink="http://www.w3.org/1999/xlink" version="1.1" x="0px" y="0px" width="204px" height="125px" viewBox="0 0 204 125" enable-background="new 0 0 204 125" xml:space="preserve">
<path fill="#D81D28" d="M157.13 33.017C146.598 13.4 125.9 0 102 0c-23.86 0-44.589 13.374-55.121 33 c-2.48 3.666-13.282 15.918-46.863 15.918c-0.011 0-0.021 0-0.031 0v27.104c0.011 0 0 0 0 0 c33.568 0 44.4 12.2 46.9 15.907C57.418 111.6 78.2 125 102 125c23.858 0 44.589-13.373 55.121-33.027 c2.479-3.664 13.278-15.912 46.863-15.92V48.947C170.404 48.9 159.6 36.7 157.1 33.017z"/>
<circle fill="#FFFFFF" cx="102" cy="62.5" r="52.5"/>
</svg>
